<svg width="325" height="29" viewBox="0 0 325 29" fill="none" xmlns="http://www.w3.org/2000/svg">
<path d="M18.0781 15.625C18.0677 15.625 18.0625 15.6302 18.0625 15.6406C18.5625 16.151 18.9792 16.7812 19.3125 17.5312C19.6458 18.2812 19.8125 19.0417 19.8125 19.8125C19.8125 21.4896 19.2344 22.901 18.0781 24.0469C16.9323 25.1823 15.5573 25.75 13.9531 25.75H6.84375V26.875H13.9531C15.224 26.875 16.3802 26.599 17.4219 26.0469C18.474 25.4948 19.3229 24.6771 19.9688 23.5938C20.6146 22.5 20.9375 21.2396 20.9375 19.8125C20.9375 18.3229 20.4896 16.9583 19.5938 15.7188C20.4896 14.5208 20.9375 13.0885 20.9375 11.4219C20.9375 10.2031 20.6198 9.0625 19.9844 8C19.349 6.92708 18.4896 6.07812 17.4062 5.45312C16.3333 4.81771 15.1823 4.5 13.9531 4.5H0.453125V27H1.57812V5.625H13.9531C15.5365 5.625 16.9062 6.20312 18.0625 7.35938C19.2292 8.50521 19.8125 9.85938 19.8125 11.4219C19.8125 13.0677 19.224 14.4635 18.0469 15.6094L18.0781 15.625ZM13.9531 21.25C14.3385 21.25 14.6615 21.125 14.9219 20.875C15.1823 20.625 15.3125 20.2708 15.3125 19.8125C15.3125 19.4375 15.1719 19.1042 14.8906 18.8125C14.6198 18.5208 14.3073 18.375 13.9531 18.375H6.82812V17.25H13.9531C14.6094 17.25 15.1875 17.5104 15.6875 18.0312C16.1875 18.5417 16.4375 19.1354 16.4375 19.8125C16.4375 20.5938 16.1927 21.2188 15.7031 21.6875C15.224 22.1458 14.6406 22.375 13.9531 22.375H6.84375V21.25H13.9531ZM13.9531 23.5C14.9427 23.5 15.7917 23.1562 16.5 22.4688C17.2083 21.7812 17.5625 20.8958 17.5625 19.8125C17.5625 18.8333 17.1979 17.974 16.4688 17.2344C15.75 16.4948 14.9115 16.125 13.9531 16.125H10.5156H6.84375V15H10.5156H13.9531C14.9427 15 15.7917 14.6667 16.5 14C17.2083 13.3229 17.5625 12.4635 17.5625 11.4219C17.5625 10.4844 17.1979 9.66146 16.4688 8.95312C15.75 8.23438 14.9115 7.875 13.9531 7.875H3.82812V27H2.70312V6.75H13.9531C15.224 6.75 16.3281 7.21875 17.2656 8.15625C18.2135 9.08333 18.6875 10.1719 18.6875 11.4219C18.6875 12.3385 18.4531 13.1667 17.9844 13.9062C17.526 14.6354 16.9167 15.1979 16.1562 15.5938C16.9167 16.0104 17.526 16.6042 17.9844 17.375C18.4531 18.1354 18.6875 18.9479 18.6875 19.8125C18.6875 21.1771 18.2188 22.3229 17.2812 23.25C16.3542 24.1667 15.2448 24.625 13.9531 24.625H6.84375V23.5H13.9531ZM13.9531 12.75C14.3385 12.75 14.6615 12.6354 14.9219 12.4062C15.1823 12.1771 15.3125 11.849 15.3125 11.4219C15.3125 11.0885 15.1719 10.7917 14.8906 10.5312C14.6198 10.2604 14.3073 10.125 13.9531 10.125H6.07812V27H4.95312V9H13.9531C14.6094 9 15.1875 9.24479 15.6875 9.73438C16.1875 10.224 16.4375 10.7865 16.4375 11.4219C16.4375 12.1719 16.1979 12.7708 15.7188 13.2188C15.2396 13.6562 14.651 13.875 13.9531 13.875H6.84375V12.75H13.9531ZM32.1094 12.5781C31.2344 13.4531 30.7969 14.5104 30.7969 15.75C30.7969 16.9896 31.2344 18.0521 32.1094 18.9375C32.9948 19.8125 34.0573 20.25 35.2969 20.25C36.5365 20.25 37.5938 19.8125 38.4688 18.9375C39.3542 18.0521 39.7969 16.9896 39.7969 15.75C39.7969 14.5104 39.3542 13.4531 38.4688 12.5781C37.5938 11.6927 36.5365 11.25 35.2969 11.25C34.0573 11.25 32.9948 11.6927 32.1094 12.5781ZM31.3125 19.7344C30.2188 18.6302 29.6719 17.3021 29.6719 15.75C29.6719 14.1979 30.2188 12.875 31.3125 11.7812C32.4167 10.6771 33.7448 10.125 35.2969 10.125C36.849 10.125 38.1719 10.6771 39.2656 11.7812C40.3698 12.875 40.9219 14.1979 40.9219 15.75C40.9219 17.3021 40.3698 18.6302 39.2656 19.7344C38.1719 20.8281 36.849 21.375 35.2969 21.375C33.7448 21.375 32.4167 20.8281 31.3125 19.7344ZM30.5156 10.9844C29.2031 12.3073 28.5469 13.8958 28.5469 15.75C28.5469 17.6042 29.2031 19.1927 30.5156 20.5156C31.8385 21.8385 33.4323 22.5 35.2969 22.5C37.1615 22.5 38.75 21.8385 40.0625 20.5156C41.3854 19.1927 42.0469 17.6042 42.0469 15.75C42.0469 13.8958 41.3854 12.3073 40.0625 10.9844C38.75 9.66146 37.1615 9 35.2969 9C33.4323 9 31.8385 9.66146 30.5156 10.9844ZM28.4688 19.7031C27.7708 18.4948 27.4219 17.1771 27.4219 15.75C27.4219 14.3229 27.7708 13.0052 28.4688 11.7969C29.1771 10.5885 30.1354 9.63542 31.3438 8.9375C32.5521 8.22917 33.8698 7.875 35.2969 7.875C36.724 7.875 38.0417 8.22917 39.25 8.9375C40.4583 9.63542 41.4115 10.5885 42.1094 11.7969C42.8177 13.0052 43.1719 14.3229 43.1719 15.75C43.1719 17.1771 42.8177 18.4948 42.1094 19.7031C41.4115 20.9115 40.4583 21.8698 39.25 22.5781C38.0417 23.276 36.724 23.625 35.2969 23.625C33.8698 23.625 32.5521 23.276 31.3438 22.5781C30.1354 21.8698 29.1771 20.9115 28.4688 19.7031ZM27 12.2656C26.5312 13.3698 26.2969 14.5312 26.2969 15.75C26.2969 16.9688 26.5312 18.1354 27 19.25C27.4792 20.3542 28.1198 21.3125 28.9219 22.125C29.7344 22.9271 30.6927 23.5677 31.7969 24.0469C32.9115 24.5156 34.0781 24.75 35.2969 24.75C36.5156 24.75 37.6771 24.5156 38.7812 24.0469C39.8958 23.5677 40.8542 22.9271 41.6562 22.125C42.4688 21.3125 43.1094 20.3542 43.5781 19.25C44.0573 18.1354 44.2969 16.9688 44.2969 15.75C44.2969 14.5312 44.0573 13.3698 43.5781 12.2656C43.1094 11.151 42.4688 10.1927 41.6562 9.39062C40.8542 8.57812 39.8958 7.9375 38.7812 7.46875C37.6771 6.98958 36.5156 6.75 35.2969 6.75C34.0781 6.75 32.9115 6.98958 31.7969 7.46875C30.6927 7.9375 29.7344 8.57812 28.9219 9.39062C28.1198 10.1927 27.4792 11.151 27 12.2656ZM25.9688 19.6875C25.4375 18.4375 25.1719 17.125 25.1719 15.75C25.1719 14.375 25.4375 13.0625 25.9688 11.8125C26.5104 10.5625 27.2292 9.48958 28.125 8.59375C29.0312 7.6875 30.1094 6.96875 31.3594 6.4375C32.6094 5.89583 33.9219 5.625 35.2969 5.625C36.6719 5.625 37.9844 5.89583 39.2344 6.4375C40.4844 6.96875 41.5573 7.6875 42.4531 8.59375C43.3594 9.48958 44.0781 10.5625 44.6094 11.8125C45.151 13.0625 45.4219 14.375 45.4219 15.75C45.4219 17.125 45.151 18.4375 44.6094 19.6875C44.0781 20.9375 43.3594 22.0156 42.4531 22.9219C41.5573 23.8177 40.4844 24.5365 39.2344 25.0781C37.9844 25.6094 36.6719 25.875 35.2969 25.875C33.9219 25.875 32.6094 25.6094 31.3594 25.0781C30.1094 24.5365 29.0312 23.8177 28.125 22.9219C27.2292 22.0156 26.5104 20.9375 25.9688 19.6875ZM24.9375 11.3906C24.3438 12.776 24.0469 14.2292 24.0469 15.75C24.0469 17.2708 24.3438 18.7292 24.9375 20.125C25.5312 21.5104 26.3281 22.7083 27.3281 23.7188C28.3385 24.7188 29.5365 25.5156 30.9219 26.1094C32.3177 26.7031 33.776 27 35.2969 27C36.8177 27 38.2708 26.7031 39.6562 26.1094C41.0521 25.5156 42.25 24.7188 43.25 23.7188C44.2604 22.7083 45.0625 21.5104 45.6562 20.125C46.25 18.7292 46.5469 17.2708 46.5469 15.75C46.5469 14.2292 46.25 12.776 45.6562 11.3906C45.0625 9.99479 44.2604 8.79688 43.25 7.79688C42.25 6.78646 41.0521 5.98438 39.6562 5.39062C38.2708 4.79688 36.8177 4.5 35.2969 4.5C33.776 4.5 32.3177 4.79688 30.9219 5.39062C29.5365 5.98438 28.3385 6.78646 27.3281 7.79688C26.3281 8.79688 25.5312 9.99479 24.9375 11.3906ZM23.9062 20.5625C23.25 19.0312 22.9219 17.4271 22.9219 15.75C22.9219 14.0729 23.25 12.474 23.9062 10.9531C24.5625 9.42188 25.4427 8.10417 26.5469 7C27.651 5.89583 28.9635 5.01562 30.4844 4.35938C32.0156 3.70312 33.6198 3.375 35.2969 3.375C36.974 3.375 38.5729 3.70312 40.0938 4.35938C41.625 5.01562 42.9427 5.89583 44.0469 7C45.151 8.10417 46.0312 9.42188 46.6875 10.9531C47.3438 12.474 47.6719 14.0729 47.6719 15.75C47.6719 17.4271 47.3438 19.0312 46.6875 20.5625C46.0312 22.0833 45.151 23.3958 44.0469 24.5C42.9427 25.6042 41.625 26.4844 40.0938 27.1406C38.5729 27.7969 36.974 28.125 35.2969 28.125C33.6198 28.125 32.0156 27.7969 30.4844 27.1406C28.9635 26.4844 27.651 25.6042 26.5469 24.5C25.4427 23.3958 24.5625 22.0833 23.9062 20.5625ZM61.1406 12.5781C60.2656 13.4531 59.8281 14.5104 59.8281 15.75C59.8281 16.9896 60.2656 18.0521 61.1406 18.9375C62.026 19.8125 63.0885 20.25 64.3281 20.25C65.5677 20.25 66.625 19.8125 67.5 18.9375C68.3854 18.0521 68.8281 16.9896 68.8281 15.75C68.8281 14.5104 68.3854 13.4531 67.5 12.5781C66.625 11.6927 65.5677 11.25 64.3281 11.25C63.0885 11.25 62.026 11.6927 61.1406 12.5781ZM60.3438 19.7344C59.25 18.6302 58.7031 17.3021 58.7031 15.75C58.7031 14.1979 59.25 12.875 60.3438 11.7812C61.4479 10.6771 62.776 10.125 64.3281 10.125C65.8802 10.125 67.2031 10.6771 68.2969 11.7812C69.401 12.875 69.9531 14.1979 69.9531 15.75C69.9531 17.3021 69.401 18.6302 68.2969 19.7344C67.2031 20.8281 65.8802 21.375 64.3281 21.375C62.776 21.375 61.4479 20.8281 60.3438 19.7344ZM59.5469 10.9844C58.2344 12.3073 57.5781 13.8958 57.5781 15.75C57.5781 17.6042 58.2344 19.1927 59.5469 20.5156C60.8698 21.8385 62.4635 22.5 64.3281 22.5C66.1927 22.5 67.7812 21.8385 69.0938 20.5156C70.4167 19.1927 71.0781 17.6042 71.0781 15.75C71.0781 13.8958 70.4167 12.3073 69.0938 10.9844C67.7812 9.66146 66.1927 9 64.3281 9C62.4635 9 60.8698 9.66146 59.5469 10.9844ZM57.5 19.7031C56.8021 18.4948 56.4531 17.1771 56.4531 15.75C56.4531 14.3229 56.8021 13.0052 57.5 11.7969C58.2083 10.5885 59.1667 9.63542 60.375 8.9375C61.5833 8.22917 62.901 7.875 64.3281 7.875C65.7552 7.875 67.0729 8.22917 68.2812 8.9375C69.4896 9.63542 70.4427 10.5885 71.1406 11.7969C71.849 13.0052 72.2031 14.3229 72.2031 15.75C72.2031 17.1771 71.849 18.4948 71.1406 19.7031C70.4427 20.9115 69.4896 21.8698 68.2812 22.5781C67.0729 23.276 65.7552 23.625 64.3281 23.625C62.901 23.625 61.5833 23.276 60.375 22.5781C59.1667 21.8698 58.2083 20.9115 57.5 19.7031ZM56.0312 12.2656C55.5625 13.3698 55.3281 14.5312 55.3281 15.75C55.3281 16.9688 55.5625 18.1354 56.0312 19.25C56.5104 20.3542 57.151 21.3125 57.9531 22.125C58.7656 22.9271 59.724 23.5677 60.8281 24.0469C61.9427 24.5156 63.1094 24.75 64.3281 24.75C65.5469 24.75 66.7083 24.5156 67.8125 24.0469C68.9271 23.5677 69.8854 22.9271 70.6875 22.125C71.5 21.3125 72.1406 20.3542 72.6094 19.25C73.0885 18.1354 73.3281 16.9688 73.3281 15.75C73.3281 14.5312 73.0885 13.3698 72.6094 12.2656C72.1406 11.151 71.5 10.1927 70.6875 9.39062C69.8854 8.57812 68.9271 7.9375 67.8125 7.46875C66.7083 6.98958 65.5469 6.75 64.3281 6.75C63.1094 6.75 61.9427 6.98958 60.8281 7.46875C59.724 7.9375 58.7656 8.57812 57.9531 9.39062C57.151 10.1927 56.5104 11.151 56.0312 12.2656ZM55 19.6875C54.4688 18.4375 54.2031 17.125 54.2031 15.75C54.2031 14.375 54.4688 13.0625 55 11.8125C55.5417 10.5625 56.2604 9.48958 57.1562 8.59375C58.0625 7.6875 59.1406 6.96875 60.3906 6.4375C61.6406 5.89583 62.9531 5.625 64.3281 5.625C65.7031 5.625 67.0156 5.89583 68.2656 6.4375C69.5156 6.96875 70.5885 7.6875 71.4844 8.59375C72.3906 9.48958 73.1094 10.5625 73.6406 11.8125C74.1823 13.0625 74.4531 14.375 74.4531 15.75C74.4531 17.125 74.1823 18.4375 73.6406 19.6875C73.1094 20.9375 72.3906 22.0156 71.4844 22.9219C70.5885 23.8177 69.5156 24.5365 68.2656 25.0781C67.0156 25.6094 65.7031 25.875 64.3281 25.875C62.9531 25.875 61.6406 25.6094 60.3906 25.0781C59.1406 24.5365 58.0625 23.8177 57.1562 22.9219C56.2604 22.0156 55.5417 20.9375 55 19.6875ZM53.9688 11.3906C53.375 12.776 53.0781 14.2292 53.0781 15.75C53.0781 17.2708 53.375 18.7292 53.9688 20.125C54.5625 21.5104 55.3594 22.7083 56.3594 23.7188C57.3698 24.7188 58.5677 25.5156 59.9531 26.1094C61.349 26.7031 62.8073 27 64.3281 27C65.849 27 67.3021 26.7031 68.6875 26.1094C70.0833 25.5156 71.2812 24.7188 72.2812 23.7188C73.2917 22.7083 74.0938 21.5104 74.6875 20.125C75.2812 18.7292 75.5781 17.2708 75.5781 15.75C75.5781 14.2292 75.2812 12.776 74.6875 11.3906C74.0938 9.99479 73.2917 8.79688 72.2812 7.79688C71.2812 6.78646 70.0833 5.98438 68.6875 5.39062C67.3021 4.79688 65.849 4.5 64.3281 4.5C62.8073 4.5 61.349 4.79688 59.9531 5.39062C58.5677 5.98438 57.3698 6.78646 56.3594 7.79688C55.3594 8.79688 54.5625 9.99479 53.9688 11.3906ZM52.9375 20.5625C52.2812 19.0312 51.9531 17.4271 51.9531 15.75C51.9531 14.0729 52.2812 12.474 52.9375 10.9531C53.5938 9.42188 54.474 8.10417 55.5781 7C56.6823 5.89583 57.9948 5.01562 59.5156 4.35938C61.0469 3.70312 62.651 3.375 64.3281 3.375C66.0052 3.375 67.6042 3.70312 69.125 4.35938C70.6562 5.01562 71.974 5.89583 73.0781 7C74.1823 8.10417 75.0625 9.42188 75.7188 10.9531C76.375 12.474 76.7031 14.0729 76.7031 15.75C76.7031 17.4271 76.375 19.0312 75.7188 20.5625C75.0625 22.0833 74.1823 23.3958 73.0781 24.5C71.974 25.6042 70.6562 26.4844 69.125 27.1406C67.6042 27.7969 66.0052 28.125 64.3281 28.125C62.651 28.125 61.0469 27.7969 59.5156 27.1406C57.9948 26.4844 56.6823 25.6042 55.5781 24.5C54.474 23.3958 53.5938 22.0833 52.9375 20.5625ZM102.875 4.5L96.6094 15.8438L102.781 27H101.531L95.3594 15.8438L101.625 4.5H102.875ZM100.359 4.5L94.0938 15.8438L100.266 27H99.0156L92.8438 15.8438L99.1094 4.5H100.359ZM97.8438 4.5L91.5781 15.8438L97.75 27H96.5L90.3281 15.8438L96.5938 4.5H97.8438ZM95.3281 4.5L89.0469 15.8438L95.2344 27H93.9844L87.7969 15.8438L94.0781 4.5H95.3281ZM85.9844 4.5V27H87.1094V4.5H85.9844ZM83.7344 4.5V27H84.8594V4.5H83.7344ZM81.4844 4.5V27H82.6094V4.5H81.4844ZM79.2344 4.5V27H80.3594V4.5H79.2344ZM113.547 13.9844L112.984 15.2188L106.234 1.125H107.359L113.547 13.9844ZM114.672 11.5156L114.094 12.75L108.484 1.125H109.609L114.672 11.5156ZM115.797 9.0625L115.234 10.2969L110.734 1.125H111.859L115.797 9.0625ZM114.375 18.2812L122.516 1.125H123.641L115.5 18.2812V27H114.375V18.2812ZM116.625 18.2812L124.766 1.125H125.891L117.75 18.2812V27H116.625V18.2812ZM118.875 18.2812L127.016 1.125H128.141L120 18.2812V27H118.875V18.2812ZM112.688 17.0938L120.266 1.125H121.391L113.25 18.2812V27H112.125V18.2812L103.984 1.125H105.109L112.688 17.0938ZM139.25 9.6875C138.042 10.8958 137.438 12.3542 137.438 14.0625C137.438 15.7708 138.042 17.2292 139.25 18.4375C140.458 19.6458 141.917 20.25 143.625 20.25C145.333 20.25 146.792 19.6458 148 18.4375C149.208 17.2292 149.812 15.7708 149.812 14.0625C149.812 12.3542 149.208 10.8958 148 9.6875C146.792 8.47917 145.333 7.875 143.625 7.875C141.917 7.875 140.458 8.47917 139.25 9.6875ZM136.891 16.9062C136.505 16 136.312 15.0521 136.312 14.0625C136.312 13.0729 136.505 12.1302 136.891 11.2344C137.276 10.3281 137.797 9.54688 138.453 8.89062C139.109 8.23438 139.885 7.71354 140.781 7.32812C141.688 6.94271 142.635 6.75 143.625 6.75C144.615 6.75 145.557 6.94271 146.453 7.32812C147.359 7.71354 148.141 8.23438 148.797 8.89062C149.453 9.54688 149.974 10.3281 150.359 11.2344C150.745 12.1302 150.938 13.0729 150.938 14.0625C150.938 15.0521 150.745 16 150.359 16.9062C149.974 17.8021 149.453 18.5781 148.797 19.2344C148.141 19.8906 147.359 20.4115 146.453 20.7969C145.557 21.1823 144.615 21.375 143.625 21.375C142.635 21.375 141.688 21.1823 140.781 20.7969C139.885 20.4115 139.109 19.8906 138.453 19.2344C137.797 18.5781 137.276 17.8021 136.891 16.9062ZM136.312 9.82812C135.562 11.1198 135.188 12.5312 135.188 14.0625C135.188 15.5938 135.562 17.0052 136.312 18.2969C137.073 19.5885 138.099 20.6146 139.391 21.375C140.682 22.125 142.094 22.5 143.625 22.5C145.156 22.5 146.568 22.125 147.859 21.375C149.151 20.6146 150.172 19.5885 150.922 18.2969C151.682 17.0052 152.062 15.5938 152.062 14.0625C152.062 12.5312 151.682 11.1198 150.922 9.82812C150.172 8.53646 149.151 7.51562 147.859 6.76562C146.568 6.00521 145.156 5.625 143.625 5.625C142.094 5.625 140.682 6.00521 139.391 6.76562C138.099 7.51562 137.073 8.53646 136.312 9.82812ZM135.344 18.8594C134.49 17.3906 134.062 15.7917 134.062 14.0625C134.062 12.3333 134.49 10.7344 135.344 9.26562C136.198 7.79688 137.359 6.63542 138.828 5.78125C140.297 4.92708 141.896 4.5 143.625 4.5C145.354 4.5 146.953 4.92708 148.422 5.78125C149.891 6.63542 151.052 7.79688 151.906 9.26562C152.76 10.7344 153.188 12.3333 153.188 14.0625C153.188 15.7917 152.76 17.3906 151.906 18.8594C151.052 20.3281 149.891 21.4896 148.422 22.3438C146.953 23.1979 145.354 23.625 143.625 23.625C141.896 23.625 140.297 23.1979 138.828 22.3438C137.359 21.4896 136.198 20.3281 135.344 18.8594ZM133.781 9.90625C133.219 11.2292 132.938 12.6146 132.938 14.0625C132.938 15.5104 133.219 16.8958 133.781 18.2188C134.344 19.5417 135.099 20.6823 136.047 21.6406C137.005 22.5885 138.146 23.3438 139.469 23.9062C140.792 24.4688 142.177 24.75 143.625 24.75C145.073 24.75 146.458 24.4688 147.781 23.9062C149.104 23.3438 150.24 22.5885 151.188 21.6406C152.146 20.6823 152.906 19.5417 153.469 18.2188C154.031 16.8958 154.312 15.5104 154.312 14.0625C154.312 12.6146 154.031 11.2292 153.469 9.90625C152.906 8.58333 152.146 7.44792 151.188 6.5C150.24 5.54167 149.104 4.78125 147.781 4.21875C146.458 3.65625 145.073 3.375 143.625 3.375C142.177 3.375 140.792 3.65625 139.469 4.21875C138.146 4.78125 137.005 5.54167 136.047 6.5C135.099 7.44792 134.344 8.58333 133.781 9.90625ZM133.391 19.9844C132.339 18.1719 131.812 16.1979 131.812 14.0625C131.812 11.9271 132.339 9.95312 133.391 8.14062C134.453 6.32812 135.891 4.89583 137.703 3.84375C139.516 2.78125 141.49 2.25 143.625 2.25C145.76 2.25 147.734 2.78125 149.547 3.84375C151.359 4.89583 152.792 6.32812 153.844 8.14062C154.906 9.95312 155.438 11.9271 155.438 14.0625C155.438 16.1979 154.906 18.1719 153.844 19.9844C152.792 21.7969 151.359 23.2344 149.547 24.2969C147.734 25.349 145.76 25.875 143.625 25.875C141.49 25.875 139.516 25.349 137.703 24.2969C135.891 23.2344 134.453 21.7969 133.391 19.9844ZM131.703 9.04688C131.026 10.6406 130.688 12.3125 130.688 14.0625C130.688 15.8125 131.026 17.4896 131.703 19.0938C132.391 20.6875 133.312 22.0625 134.469 23.2188C135.625 24.375 137 25.2969 138.594 25.9844C140.198 26.6615 141.875 27 143.625 27C145.375 27 147.047 26.6615 148.641 25.9844C150.245 25.2969 151.625 24.375 152.781 23.2188C153.938 22.0625 154.854 20.6875 155.531 19.0938C156.219 17.4896 156.562 15.8125 156.562 14.0625C156.562 12.3125 156.219 10.6406 155.531 9.04688C154.854 7.44271 153.938 6.0625 152.781 4.90625C151.625 3.75 150.245 2.83333 148.641 2.15625C147.047 1.46875 145.375 1.125 143.625 1.125C141.875 1.125 140.198 1.46875 138.594 2.15625C137 2.83333 135.625 3.75 134.469 4.90625C133.312 6.0625 132.391 7.44271 131.703 9.04688ZM130.672 19.5312C129.932 17.7917 129.562 15.9688 129.562 14.0625C129.562 12.1562 129.932 10.3385 130.672 8.60938C131.422 6.86979 132.422 5.375 133.672 4.125C134.932 2.86458 136.427 1.86458 138.156 1.125C139.896 0.375 141.719 0 143.625 0C145.531 0 147.349 0.375 149.078 1.125C150.818 1.86458 152.312 2.86458 153.562 4.125C154.823 5.375 155.823 6.86979 156.562 8.60938C157.312 10.3385 157.688 12.1562 157.688 14.0625C157.688 15.9688 157.312 17.7917 156.562 19.5312C155.823 21.2604 154.823 22.7552 153.562 24.0156C152.312 25.2656 150.818 26.2604 149.078 27C147.349 27.75 145.531 28.125 143.625 28.125C141.719 28.125 139.896 27.75 138.156 27C136.427 26.2604 134.932 25.2656 133.672 24.0156C132.422 22.7552 131.422 21.2604 130.672 19.5312ZM178.234 15.625V1.125H179.359V15.625C179.359 17.2083 178.734 18.5625 177.484 19.6875C176.234 20.8125 174.734 21.375 172.984 21.375C171.234 21.375 169.734 20.8125 168.484 19.6875C167.234 18.5625 166.609 17.2083 166.609 15.625V1.125H167.734V15.625C167.734 16.8958 168.245 17.9844 169.266 18.8906C170.297 19.7969 171.536 20.25 172.984 20.25C174.432 20.25 175.667 19.7969 176.688 18.8906C177.719 17.9844 178.234 16.8958 178.234 15.625ZM180.484 15.625V1.125H181.609V15.625C181.609 16.7083 181.38 17.7448 180.922 18.7344C180.464 19.7135 179.849 20.5625 179.078 21.2812C178.307 22 177.391 22.5729 176.328 23C175.266 23.4167 174.151 23.625 172.984 23.625C171.818 23.625 170.703 23.4167 169.641 23C168.578 22.5729 167.661 22 166.891 21.2812C166.12 20.5625 165.505 19.7135 165.047 18.7344C164.589 17.7448 164.359 16.7083 164.359 15.625V1.125H165.484V15.625C165.484 16.8646 165.818 18.0156 166.484 19.0781C167.161 20.1302 168.073 20.9635 169.219 21.5781C170.375 22.1927 171.63 22.5 172.984 22.5C174.339 22.5 175.589 22.1927 176.734 21.5781C177.891 20.9635 178.802 20.1302 179.469 19.0781C180.146 18.0156 180.484 16.8646 180.484 15.625ZM182.734 15.625V1.125H183.859V15.625C183.859 17.0104 183.568 18.3385 182.984 19.6094C182.411 20.8698 181.641 21.9583 180.672 22.875C179.703 23.7917 178.547 24.5208 177.203 25.0625C175.859 25.6042 174.453 25.875 172.984 25.875C171.516 25.875 170.109 25.6042 168.766 25.0625C167.422 24.5208 166.266 23.7917 165.297 22.875C164.328 21.9583 163.552 20.8698 162.969 19.6094C162.396 18.3385 162.109 17.0104 162.109 15.625V1.125H163.234V15.625C163.234 17.2708 163.672 18.7969 164.547 20.2031C165.422 21.599 166.604 22.7083 168.094 23.5312C169.594 24.3438 171.224 24.75 172.984 24.75C174.745 24.75 176.37 24.3438 177.859 23.5312C179.359 22.7083 180.547 21.599 181.422 20.2031C182.297 18.7969 182.734 17.2708 182.734 15.625ZM184.984 15.625V1.125H186.109V15.625C186.109 17.875 185.521 19.9635 184.344 21.8906C183.167 23.8073 181.568 25.3281 179.547 26.4531C177.536 27.5677 175.349 28.125 172.984 28.125C170.62 28.125 168.427 27.5677 166.406 26.4531C164.396 25.3281 162.802 23.8073 161.625 21.8906C160.448 19.9635 159.859 17.875 159.859 15.625V1.125H160.984V15.625C160.984 17.1562 161.302 18.625 161.938 20.0312C162.573 21.4375 163.427 22.651 164.5 23.6719C165.573 24.6823 166.849 25.4896 168.328 26.0938C169.818 26.6979 171.37 27 172.984 27C174.599 27 176.146 26.6979 177.625 26.0938C179.115 25.4896 180.396 24.6823 181.469 23.6719C182.542 22.651 183.396 21.4375 184.031 20.0312C184.667 18.625 184.984 17.1562 184.984 15.625ZM197.484 14.125H204.266C205.297 14.125 206.167 13.7917 206.875 13.125C207.594 12.4583 207.953 11.5104 207.953 10.2812C207.953 9.375 207.578 8.5625 206.828 7.84375C206.078 7.11458 205.224 6.75 204.266 6.75H194.609V27H193.484V5.625H204.266C205.536 5.625 206.656 6.09896 207.625 7.04688C208.594 7.98438 209.078 9.0625 209.078 10.2812C209.078 11.7812 208.609 12.9844 207.672 13.8906C206.734 14.7969 205.599 15.25 204.266 15.25H197.484V14.125ZM197.484 16.375H204.266C205.891 16.375 207.286 15.8073 208.453 14.6719C209.62 13.526 210.203 12.0625 210.203 10.2812C210.203 8.75 209.604 7.40625 208.406 6.25C207.219 5.08333 205.839 4.5 204.266 4.5H192.359V27H191.234V3.375H204.266C205.505 3.375 206.667 3.69271 207.75 4.32812C208.844 4.96354 209.714 5.81771 210.359 6.89062C211.005 7.95312 211.328 9.08333 211.328 10.2812C211.328 12.3333 210.63 14.0521 209.234 15.4375C207.849 16.8125 206.193 17.5 204.266 17.5H197.484V16.375ZM197.484 18.625H204.266C205.724 18.625 207.078 18.2656 208.328 17.5469C209.578 16.8281 210.578 15.8281 211.328 14.5469C212.078 13.2552 212.453 11.8333 212.453 10.2812C212.453 8.875 212.078 7.55729 211.328 6.32812C210.589 5.08854 209.589 4.09896 208.328 3.35938C207.068 2.61979 205.714 2.25 204.266 2.25H190.109V27H188.984V1.125H204.266C205.901 1.125 207.438 1.54688 208.875 2.39062C210.312 3.22396 211.453 4.34896 212.297 5.76562C213.151 7.17188 213.578 8.67708 213.578 10.2812C213.578 12.1354 213.177 13.7656 212.375 15.1719C211.583 16.5781 210.505 17.6771 209.141 18.4688L212.047 27H210.859L208.078 19C207.661 19.1667 207.344 19.2812 207.125 19.3438L209.734 27H208.547L206 19.6094C205.906 19.6302 205.573 19.6667 205 19.7188L207.422 27H206.234L203.844 19.75H202.828L205.109 27H203.922L201.625 19.75H197.484V18.625ZM196.859 27H195.734V7.875H204.266C204.964 7.875 205.562 8.11458 206.062 8.59375C206.573 9.0625 206.828 9.625 206.828 10.2812C206.828 12.0938 205.974 13 204.266 13H197.484V11.875H204.266C204.714 11.875 205.062 11.7604 205.312 11.5312C205.573 11.2917 205.703 10.875 205.703 10.2812C205.703 9.91667 205.562 9.61458 205.281 9.375C205.01 9.125 204.672 9 204.266 9H196.859V27ZM226.328 16.2969H224.547C222.359 16.2969 220.677 15.8542 219.5 14.9688C218.323 14.0729 217.734 12.8438 217.734 11.2812C217.734 9.82292 218.427 8.60938 219.812 7.64062C221.198 6.66146 223.141 6.17188 225.641 6.17188C227.307 6.17188 228.859 6.40104 230.297 6.85938C231.745 7.31771 232.948 7.96354 233.906 8.79688L233.031 9.5C232.177 8.80208 231.104 8.26042 229.812 7.875C228.521 7.48958 227.13 7.29688 225.641 7.29688C223.443 7.29688 221.76 7.67188 220.594 8.42188C219.438 9.17188 218.859 10.125 218.859 11.2812C218.859 12.5312 219.333 13.4948 220.281 14.1719C221.24 14.8385 222.661 15.1719 224.547 15.1719H226.266C228.484 15.1719 230.182 15.6198 231.359 16.5156C232.547 17.401 233.141 18.625 233.141 20.1875C233.141 21.6458 232.448 22.8646 231.062 23.8438C229.677 24.8125 227.734 25.2969 225.234 25.2969C223.568 25.2969 222.01 25.0677 220.562 24.6094C219.125 24.151 217.927 23.5052 216.969 22.6719L217.844 21.9688C218.698 22.6667 219.771 23.2083 221.062 23.5938C222.354 23.9792 223.745 24.1719 225.234 24.1719C227.432 24.1719 229.109 23.7969 230.266 23.0469C231.432 22.2969 232.016 21.3438 232.016 20.1875C232.016 18.9375 231.536 17.9792 230.578 17.3125C229.63 16.6354 228.214 16.2969 226.328 16.2969ZM226.328 18.5469H224.547C221.651 18.5469 219.417 17.8906 217.844 16.5781C216.271 15.2552 215.484 13.4896 215.484 11.2812C215.484 10.2708 215.708 9.32292 216.156 8.4375C216.604 7.55208 217.245 6.77604 218.078 6.10938C218.922 5.43229 219.995 4.90104 221.297 4.51562C222.599 4.11979 224.047 3.92188 225.641 3.92188C227.651 3.92188 229.531 4.22917 231.281 4.84375C233.031 5.44792 234.49 6.29688 235.656 7.39062L234.75 8.0625C233.688 7.10417 232.359 6.36458 230.766 5.84375C229.172 5.3125 227.464 5.04688 225.641 5.04688C222.828 5.04688 220.62 5.64062 219.016 6.82812C217.411 8.01562 216.609 9.5 216.609 11.2812C216.609 13.1667 217.297 14.6615 218.672 15.7656C220.047 16.8698 222.005 17.4219 224.547 17.4219H226.266C229.349 17.4219 230.891 18.3438 230.891 20.1875C230.891 21.0208 230.417 21.7083 229.469 22.25C228.531 22.7812 227.12 23.0469 225.234 23.0469C223.911 23.0469 222.682 22.8958 221.547 22.5938C220.411 22.2812 219.474 21.8385 218.734 21.2656L219.625 20.5781C220.927 21.474 222.797 21.9219 225.234 21.9219C226.797 21.9219 227.943 21.7604 228.672 21.4375C229.401 21.1146 229.766 20.6979 229.766 20.1875C229.766 19.5938 229.51 19.1719 229 18.9219C228.49 18.6719 227.599 18.5469 226.328 18.5469ZM226.328 14.0469H224.547C221.505 14.0469 219.984 13.125 219.984 11.2812C219.984 10.4479 220.453 9.76562 221.391 9.23438C222.339 8.69271 223.755 8.42188 225.641 8.42188C226.964 8.42188 228.193 8.57812 229.328 8.89062C230.464 9.19271 231.401 9.63021 232.141 10.2031L231.25 10.8906C229.948 9.99479 228.078 9.54688 225.641 9.54688C224.078 9.54688 222.932 9.70833 222.203 10.0312C221.474 10.3542 221.109 10.7708 221.109 11.2812C221.109 11.875 221.365 12.2969 221.875 12.5469C222.385 12.7969 223.276 12.9219 224.547 12.9219H226.328C229.224 12.9219 231.458 13.5833 233.031 14.9062C234.604 16.2188 235.391 17.9792 235.391 20.1875C235.391 21.1979 235.167 22.1458 234.719 23.0312C234.271 23.9167 233.625 24.6979 232.781 25.375C231.948 26.0417 230.88 26.5729 229.578 26.9688C228.276 27.3542 226.828 27.5469 225.234 27.5469C223.224 27.5469 221.344 27.2448 219.594 26.6406C217.844 26.026 216.385 25.1719 215.219 24.0781L216.125 23.4062C217.188 24.3646 218.516 25.1094 220.109 25.6406C221.703 26.1615 223.411 26.4219 225.234 26.4219C228.047 26.4219 230.255 25.8281 231.859 24.6406C233.464 23.4531 234.266 21.9688 234.266 20.1875C234.266 18.3021 233.578 16.8073 232.203 15.7031C230.828 14.599 228.87 14.0469 226.328 14.0469ZM260.375 4.5H261.5V27H260.375V4.5ZM237.859 4.5H238.984V27H237.859V4.5ZM258.125 4.5H259.25V27H258.125V4.5ZM255.875 4.5H257V27H255.875V4.5ZM253.625 4.5H254.75V27H253.625V18H245.734V27H244.609V4.5H245.734V12.375H253.625V4.5ZM242.359 4.5H243.484V27H242.359V4.5ZM240.109 4.5H241.234V27H240.109V4.5ZM253.625 16.875V15.75H245.734V16.875H253.625ZM253.625 14.625V13.5H245.734V14.625H253.625ZM273.047 12.5781C272.172 13.4531 271.734 14.5104 271.734 15.75C271.734 16.9896 272.172 18.0521 273.047 18.9375C273.932 19.8125 274.995 20.25 276.234 20.25C277.474 20.25 278.531 19.8125 279.406 18.9375C280.292 18.0521 280.734 16.9896 280.734 15.75C280.734 14.5104 280.292 13.4531 279.406 12.5781C278.531 11.6927 277.474 11.25 276.234 11.25C274.995 11.25 273.932 11.6927 273.047 12.5781ZM272.25 19.7344C271.156 18.6302 270.609 17.3021 270.609 15.75C270.609 14.1979 271.156 12.875 272.25 11.7812C273.354 10.6771 274.682 10.125 276.234 10.125C277.786 10.125 279.109 10.6771 280.203 11.7812C281.307 12.875 281.859 14.1979 281.859 15.75C281.859 17.3021 281.307 18.6302 280.203 19.7344C279.109 20.8281 277.786 21.375 276.234 21.375C274.682 21.375 273.354 20.8281 272.25 19.7344ZM271.453 10.9844C270.141 12.3073 269.484 13.8958 269.484 15.75C269.484 17.6042 270.141 19.1927 271.453 20.5156C272.776 21.8385 274.37 22.5 276.234 22.5C278.099 22.5 279.688 21.8385 281 20.5156C282.323 19.1927 282.984 17.6042 282.984 15.75C282.984 13.8958 282.323 12.3073 281 10.9844C279.688 9.66146 278.099 9 276.234 9C274.37 9 272.776 9.66146 271.453 10.9844ZM269.406 19.7031C268.708 18.4948 268.359 17.1771 268.359 15.75C268.359 14.3229 268.708 13.0052 269.406 11.7969C270.115 10.5885 271.073 9.63542 272.281 8.9375C273.49 8.22917 274.807 7.875 276.234 7.875C277.661 7.875 278.979 8.22917 280.188 8.9375C281.396 9.63542 282.349 10.5885 283.047 11.7969C283.755 13.0052 284.109 14.3229 284.109 15.75C284.109 17.1771 283.755 18.4948 283.047 19.7031C282.349 20.9115 281.396 21.8698 280.188 22.5781C278.979 23.276 277.661 23.625 276.234 23.625C274.807 23.625 273.49 23.276 272.281 22.5781C271.073 21.8698 270.115 20.9115 269.406 19.7031ZM267.938 12.2656C267.469 13.3698 267.234 14.5312 267.234 15.75C267.234 16.9688 267.469 18.1354 267.938 19.25C268.417 20.3542 269.057 21.3125 269.859 22.125C270.672 22.9271 271.63 23.5677 272.734 24.0469C273.849 24.5156 275.016 24.75 276.234 24.75C277.453 24.75 278.615 24.5156 279.719 24.0469C280.833 23.5677 281.792 22.9271 282.594 22.125C283.406 21.3125 284.047 20.3542 284.516 19.25C284.995 18.1354 285.234 16.9688 285.234 15.75C285.234 14.5312 284.995 13.3698 284.516 12.2656C284.047 11.151 283.406 10.1927 282.594 9.39062C281.792 8.57812 280.833 7.9375 279.719 7.46875C278.615 6.98958 277.453 6.75 276.234 6.75C275.016 6.75 273.849 6.98958 272.734 7.46875C271.63 7.9375 270.672 8.57812 269.859 9.39062C269.057 10.1927 268.417 11.151 267.938 12.2656ZM266.906 19.6875C266.375 18.4375 266.109 17.125 266.109 15.75C266.109 14.375 266.375 13.0625 266.906 11.8125C267.448 10.5625 268.167 9.48958 269.062 8.59375C269.969 7.6875 271.047 6.96875 272.297 6.4375C273.547 5.89583 274.859 5.625 276.234 5.625C277.609 5.625 278.922 5.89583 280.172 6.4375C281.422 6.96875 282.495 7.6875 283.391 8.59375C284.297 9.48958 285.016 10.5625 285.547 11.8125C286.089 13.0625 286.359 14.375 286.359 15.75C286.359 17.125 286.089 18.4375 285.547 19.6875C285.016 20.9375 284.297 22.0156 283.391 22.9219C282.495 23.8177 281.422 24.5365 280.172 25.0781C278.922 25.6094 277.609 25.875 276.234 25.875C274.859 25.875 273.547 25.6094 272.297 25.0781C271.047 24.5365 269.969 23.8177 269.062 22.9219C268.167 22.0156 267.448 20.9375 266.906 19.6875ZM265.875 11.3906C265.281 12.776 264.984 14.2292 264.984 15.75C264.984 17.2708 265.281 18.7292 265.875 20.125C266.469 21.5104 267.266 22.7083 268.266 23.7188C269.276 24.7188 270.474 25.5156 271.859 26.1094C273.255 26.7031 274.714 27 276.234 27C277.755 27 279.208 26.7031 280.594 26.1094C281.99 25.5156 283.188 24.7188 284.188 23.7188C285.198 22.7083 286 21.5104 286.594 20.125C287.188 18.7292 287.484 17.2708 287.484 15.75C287.484 14.2292 287.188 12.776 286.594 11.3906C286 9.99479 285.198 8.79688 284.188 7.79688C283.188 6.78646 281.99 5.98438 280.594 5.39062C279.208 4.79688 277.755 4.5 276.234 4.5C274.714 4.5 273.255 4.79688 271.859 5.39062C270.474 5.98438 269.276 6.78646 268.266 7.79688C267.266 8.79688 266.469 9.99479 265.875 11.3906ZM264.844 20.5625C264.188 19.0312 263.859 17.4271 263.859 15.75C263.859 14.0729 264.188 12.474 264.844 10.9531C265.5 9.42188 266.38 8.10417 267.484 7C268.589 5.89583 269.901 5.01562 271.422 4.35938C272.953 3.70312 274.557 3.375 276.234 3.375C277.911 3.375 279.51 3.70312 281.031 4.35938C282.562 5.01562 283.88 5.89583 284.984 7C286.089 8.10417 286.969 9.42188 287.625 10.9531C288.281 12.474 288.609 14.0729 288.609 15.75C288.609 17.4271 288.281 19.0312 287.625 20.5625C286.969 22.0833 286.089 23.3958 284.984 24.5C283.88 25.6042 282.562 26.4844 281.031 27.1406C279.51 27.7969 277.911 28.125 276.234 28.125C274.557 28.125 272.953 27.7969 271.422 27.1406C269.901 26.4844 268.589 25.6042 267.484 24.5C266.38 23.3958 265.5 22.0833 264.844 20.5625ZM313.328 19.7656C313.547 19.776 313.812 19.7812 314.125 19.7812C314.438 19.7812 314.698 19.776 314.906 19.7656C315.125 19.7448 315.349 19.7031 315.578 19.6406C315.807 19.5677 315.99 19.474 316.125 19.3594C316.26 19.2448 316.37 19.0833 316.453 18.875C316.547 18.6562 316.594 18.3958 316.594 18.0938V4.5H317.719V18.0938C317.719 19.9688 316.521 20.9062 314.125 20.9062C312.917 20.9062 312.021 20.6771 311.438 20.2188C311.354 20.625 311.255 20.9844 311.141 21.2969C311.932 21.7865 312.927 22.0312 314.125 22.0312C315.521 22.0312 316.656 21.7083 317.531 21.0625C318.406 20.4062 318.844 19.4167 318.844 18.0938V4.5H319.969V18.0938C319.969 19.7292 319.417 20.9844 318.312 21.8594C317.219 22.724 315.823 23.1562 314.125 23.1562C312.802 23.1562 311.667 22.8854 310.719 22.3438C310.562 22.6771 310.38 22.9948 310.172 23.2969C311.307 23.9531 312.625 24.2812 314.125 24.2812C315.094 24.2812 315.995 24.1458 316.828 23.875C317.672 23.6042 318.411 23.2135 319.047 22.7031C319.682 22.1927 320.182 21.5417 320.547 20.75C320.911 19.9583 321.094 19.0729 321.094 18.0938V4.5H322.219V18.0938C322.219 19.5938 321.849 20.9062 321.109 22.0312C320.38 23.1562 319.406 24 318.188 24.5625C316.979 25.125 315.625 25.4062 314.125 25.4062C312.375 25.4062 310.833 25.0052 309.5 24.2031C309.208 24.5365 308.943 24.8073 308.703 25.0156C310.255 26.026 312.062 26.5312 314.125 26.5312C315.823 26.5312 317.365 26.1979 318.75 25.5312C320.135 24.8646 321.245 23.8854 322.078 22.5938C322.922 21.2917 323.344 19.7917 323.344 18.0938V4.5H324.469V18.0938C324.469 19.5312 324.193 20.8542 323.641 22.0625C323.099 23.2708 322.359 24.2812 321.422 25.0938C320.495 25.9062 319.401 26.5365 318.141 26.9844C316.88 27.4323 315.542 27.6562 314.125 27.6562C311.646 27.6562 309.526 27.0208 307.766 25.75C305.943 27.0208 303.792 27.6562 301.312 27.6562C299.896 27.6562 298.557 27.4323 297.297 26.9844C296.036 26.5365 294.938 25.9062 294 25.0938C293.073 24.2812 292.333 23.2708 291.781 22.0625C291.24 20.8542 290.969 19.5312 290.969 18.0938V4.5H292.094V18.0938C292.094 19.375 292.333 20.5521 292.812 21.625C293.302 22.6979 293.964 23.5885 294.797 24.2969C295.63 25.0052 296.604 25.5573 297.719 25.9531C298.844 26.3385 300.042 26.5312 301.312 26.5312C302.969 26.5312 304.505 26.1562 305.922 25.4062C307.339 24.6458 308.458 23.6198 309.281 22.3281C310.115 21.026 310.531 19.6146 310.531 18.0938V4.5H311.656V18.0938C311.656 18.3958 311.698 18.6562 311.781 18.875C311.875 19.0833 311.99 19.2448 312.125 19.3594C312.26 19.474 312.443 19.5677 312.672 19.6406C312.901 19.7031 313.12 19.7448 313.328 19.7656ZM304.906 4.5V18.0938C304.906 19.9688 303.708 20.9062 301.312 20.9062C298.917 20.9062 297.719 19.9688 297.719 18.0938V4.5H298.844V18.0938C298.844 18.3958 298.885 18.6562 298.969 18.875C299.062 19.0833 299.177 19.2448 299.312 19.3594C299.448 19.474 299.63 19.5677 299.859 19.6406C300.089 19.7031 300.307 19.7448 300.516 19.7656C300.734 19.776 301 19.7812 301.312 19.7812C301.625 19.7812 301.885 19.776 302.094 19.7656C302.312 19.7448 302.536 19.7031 302.766 19.6406C302.995 19.5677 303.177 19.474 303.312 19.3594C303.448 19.2448 303.557 19.0833 303.641 18.875C303.734 18.6562 303.781 18.3958 303.781 18.0938V4.5H304.906ZM307.156 4.5V18.0938C307.156 19.7292 306.604 20.9844 305.5 21.8594C304.406 22.724 303.01 23.1562 301.312 23.1562C299.615 23.1562 298.214 22.724 297.109 21.8594C296.016 20.9844 295.469 19.7292 295.469 18.0938V4.5H296.594V18.0938C296.594 19.4167 297.031 20.4062 297.906 21.0625C298.781 21.7083 299.917 22.0312 301.312 22.0312C302.708 22.0312 303.844 21.7083 304.719 21.0625C305.594 20.4062 306.031 19.4167 306.031 18.0938V4.5H307.156ZM309.406 4.5V18.0938C309.406 19.5938 309.036 20.9062 308.297 22.0312C307.568 23.1562 306.594 24 305.375 24.5625C304.167 25.125 302.812 25.4062 301.312 25.4062C299.812 25.4062 298.453 25.125 297.234 24.5625C296.026 24 295.052 23.1562 294.312 22.0312C293.583 20.9062 293.219 19.5938 293.219 18.0938V4.5H294.344V18.0938C294.344 19.0729 294.526 19.9583 294.891 20.75C295.255 21.5417 295.755 22.1927 296.391 22.7031C297.026 23.2135 297.76 23.6042 298.594 23.875C299.438 24.1458 300.344 24.2812 301.312 24.2812C302.281 24.2812 303.182 24.1458 304.016 23.875C304.859 23.6042 305.599 23.2135 306.234 22.7031C306.87 22.1927 307.37 21.5417 307.734 20.75C308.099 19.9583 308.281 19.0729 308.281 18.0938V4.5H309.406Z" fill="white" fill-opacity="0.5"/>
</svg>
