<svg width="228" height="32" viewBox="0 0 228 32" fill="none" xmlns="http://www.w3.org/2000/svg">
<path d="M9.1875 19.4062H13.9531C14.8906 19.4062 15.6875 19.125 16.3438 18.5625C17 18 17.3281 17.2083 17.3281 16.1875C17.3281 15.3958 16.9844 14.6875 16.2969 14.0625C15.6094 13.4375 14.8281 13.125 13.9531 13.125H6.07812V30H4.95312V12H13.9531C15.151 12 16.1979 12.4219 17.0938 13.2656C18 14.1094 18.4531 15.0833 18.4531 16.1875C18.4531 17.5104 18.0156 18.5677 17.1406 19.3594C16.2656 20.1406 15.2031 20.5312 13.9531 20.5312H9.1875V19.4062ZM9.1875 21.6562H13.9531C15.4948 21.6562 16.8177 21.1458 17.9219 20.125C19.026 19.1042 19.5781 17.7917 19.5781 16.1875C19.5781 14.7812 19.0156 13.5469 17.8906 12.4844C16.7656 11.4115 15.4531 10.875 13.9531 10.875H3.82812V30H2.70312V9.75H13.9531C15.7656 9.75 17.3438 10.3958 18.6875 11.6875C20.0312 12.9688 20.7031 14.4688 20.7031 16.1875C20.7031 18.0625 20.0365 19.6302 18.7031 20.8906C17.3802 22.151 15.7969 22.7812 13.9531 22.7812H9.1875V21.6562ZM9.1875 23.9062H13.9531C15.3594 23.9062 16.6615 23.5729 17.8594 22.9062C19.0677 22.2396 20.0312 21.3125 20.75 20.125C21.4688 18.9375 21.8281 17.625 21.8281 16.1875C21.8281 14.8646 21.4688 13.6198 20.75 12.4531C20.0417 11.2865 19.0781 10.3594 17.8594 9.67188C16.651 8.97396 15.349 8.625 13.9531 8.625H1.57812V30H0.453125V7.5H13.9531C15.1406 7.5 16.2865 7.73438 17.3906 8.20312C18.5052 8.67188 19.4688 9.30208 20.2812 10.0938C21.0938 10.875 21.7396 11.8021 22.2188 12.875C22.7083 13.9375 22.9531 15.0417 22.9531 16.1875C22.9531 17.5312 22.7135 18.7656 22.2344 19.8906C21.7552 21.0156 21.1042 21.9531 20.2812 22.7031C19.4583 23.4427 18.5 24.0156 17.4062 24.4219C16.3229 24.8281 15.1719 25.0312 13.9531 25.0312H9.1875V23.9062ZM8.32812 30H7.20312V14.25H13.9531C14.5677 14.25 15.0938 14.4427 15.5312 14.8281C15.9792 15.2031 16.2031 15.6562 16.2031 16.1875C16.2031 17.5833 15.4531 18.2812 13.9531 18.2812H9.1875V17.1562H13.9531C14.7031 17.1562 15.0781 16.8333 15.0781 16.1875C15.0781 15.9583 14.9688 15.7656 14.75 15.6094C14.5312 15.4531 14.2656 15.375 13.9531 15.375H8.32812V30ZM32.2344 7.5H33.3594V30H32.2344V7.5ZM29.9844 7.5H31.1094V30H29.9844V7.5ZM27.7344 7.5H28.8594V30H27.7344V7.5ZM25.4844 7.5H26.6094V30H25.4844V7.5ZM52.4844 15.25L51.5781 15.9375C50.6719 14.8125 49.5052 14.25 48.0781 14.25C46.8385 14.25 45.776 14.6927 44.8906 15.5781C44.0156 16.4531 43.5781 17.5104 43.5781 18.75C43.5781 19.9896 44.0156 21.0521 44.8906 21.9375C45.776 22.8125 46.8385 23.25 48.0781 23.25C48.776 23.25 49.4271 23.099 50.0312 22.7969C50.6458 22.4948 51.1667 22.0781 51.5938 21.5469L52.4688 22.2812C51.9479 22.9375 51.3021 23.4531 50.5312 23.8281C49.7604 24.1927 48.9427 24.375 48.0781 24.375C46.526 24.375 45.1979 23.8281 44.0938 22.7344C43 21.6302 42.4531 20.3021 42.4531 18.75C42.4531 17.1979 43 15.875 44.0938 14.7812C45.1979 13.6771 46.526 13.125 48.0781 13.125C48.9531 13.125 49.776 13.3177 50.5469 13.7031C51.3177 14.0781 51.9635 14.5938 52.4844 15.25ZM54.2344 13.8438L53.3438 14.5312C52.7188 13.7396 51.9427 13.1198 51.0156 12.6719C50.099 12.224 49.1198 12 48.0781 12C46.2135 12 44.6198 12.6615 43.2969 13.9844C41.9844 15.3073 41.3281 16.8958 41.3281 18.75C41.3281 20.6042 41.9844 22.1927 43.2969 23.5156C44.6198 24.8385 46.2135 25.5 48.0781 25.5C49.1198 25.5 50.1042 25.276 51.0312 24.8281C51.9583 24.3698 52.7344 23.7448 53.3594 22.9531L54.2188 23.6719C53.4896 24.5885 52.5885 25.3125 51.5156 25.8438C50.4427 26.3646 49.2969 26.625 48.0781 26.625C46.651 26.625 45.3333 26.276 44.125 25.5781C42.9167 24.8698 41.9583 23.9115 41.25 22.7031C40.5521 21.4948 40.2031 20.1771 40.2031 18.75C40.2031 17.3229 40.5521 16.0052 41.25 14.7969C41.9583 13.5885 42.9167 12.6354 44.125 11.9375C45.3333 11.2292 46.651 10.875 48.0781 10.875C49.2969 10.875 50.4427 11.1406 51.5156 11.6719C52.599 12.1927 53.5052 12.9167 54.2344 13.8438ZM56 12.4375L55.125 13.1406C54.2812 12.0885 53.2448 11.2604 52.0156 10.6562C50.7865 10.0521 49.474 9.75 48.0781 9.75C46.8594 9.75 45.6927 9.98958 44.5781 10.4688C43.474 10.9375 42.5156 11.5781 41.7031 12.3906C40.901 13.1927 40.2604 14.151 39.7812 15.2656C39.3125 16.3698 39.0781 17.5312 39.0781 18.75C39.0781 19.9688 39.3125 21.1354 39.7812 22.25C40.2604 23.3542 40.901 24.3125 41.7031 25.125C42.5156 25.9271 43.474 26.5677 44.5781 27.0469C45.6927 27.5156 46.8594 27.75 48.0781 27.75C49.474 27.75 50.7865 27.4479 52.0156 26.8438C53.2448 26.2396 54.2812 25.4115 55.125 24.3594L55.9688 25.0938C55.0208 26.2708 53.8594 27.1979 52.4844 27.875C51.1094 28.5417 49.6406 28.875 48.0781 28.875C46.7031 28.875 45.3906 28.6094 44.1406 28.0781C42.8906 27.5365 41.8125 26.8177 40.9062 25.9219C40.0104 25.0156 39.2917 23.9375 38.75 22.6875C38.2188 21.4375 37.9531 20.125 37.9531 18.75C37.9531 17.375 38.2188 16.0625 38.75 14.8125C39.2917 13.5625 40.0104 12.4896 40.9062 11.5938C41.8125 10.6875 42.8906 9.96875 44.1406 9.4375C45.3906 8.89583 46.7031 8.625 48.0781 8.625C49.651 8.625 51.125 8.96354 52.5 9.64062C53.8854 10.3177 55.0521 11.25 56 12.4375ZM57.75 11.0312L56.8438 11.7031C55.7917 10.401 54.5 9.375 52.9688 8.625C51.4479 7.875 49.8177 7.5 48.0781 7.5C46.5573 7.5 45.099 7.79688 43.7031 8.39062C42.3177 8.98438 41.1198 9.78646 40.1094 10.7969C39.1094 11.7969 38.3125 12.9948 37.7188 14.3906C37.125 15.776 36.8281 17.2292 36.8281 18.75C36.8281 20.2708 37.125 21.7292 37.7188 23.125C38.3125 24.5104 39.1094 25.7083 40.1094 26.7188C41.1198 27.7188 42.3177 28.5156 43.7031 29.1094C45.099 29.7031 46.5573 30 48.0781 30C49.8177 30 51.4479 29.625 52.9688 28.875C54.5 28.125 55.7917 27.099 56.8438 25.7969L57.7344 26.4844C56.5781 27.9219 55.1562 29.0573 53.4688 29.8906C51.7917 30.7135 49.9948 31.125 48.0781 31.125C46.401 31.125 44.7969 30.7969 43.2656 30.1406C41.7448 29.4844 40.4323 28.6042 39.3281 27.5C38.224 26.3958 37.3438 25.0833 36.6875 23.5625C36.0312 22.0312 35.7031 20.4271 35.7031 18.75C35.7031 17.0729 36.0312 15.474 36.6875 13.9531C37.3438 12.4219 38.224 11.1042 39.3281 10C40.4323 8.89583 41.7448 8.01562 43.2656 7.35938C44.7969 6.70312 46.401 6.375 48.0781 6.375C49.9948 6.375 51.7969 6.79167 53.4844 7.625C55.1719 8.44792 56.5938 9.58333 57.75 11.0312ZM83.5312 7.5L77.2656 18.8438L83.4375 30H82.1875L76.0156 18.8438L82.2812 7.5H83.5312ZM81.0156 7.5L74.75 18.8438L80.9219 30H79.6719L73.5 18.8438L79.7656 7.5H81.0156ZM78.5 7.5L72.2344 18.8438L78.4062 30H77.1562L70.9844 18.8438L77.25 7.5H78.5ZM75.9844 7.5L69.7031 18.8438L75.8906 30H74.6406L68.4531 18.8438L74.7344 7.5H75.9844ZM66.6406 7.5V30H67.7656V7.5H66.6406ZM64.3906 7.5V30H65.5156V7.5H64.3906ZM62.1406 7.5V30H63.2656V7.5H62.1406ZM59.8906 7.5V30H61.0156V7.5H59.8906ZM98.2969 21.457L98.8066 20.1914H103.131L103.641 21.457H98.2969ZM97.3125 23.9883L97.8047 22.7227H104.115L104.66 23.9883H97.3125ZM96.3281 26.5195L96.8203 25.2539H105.117L105.645 26.5195H96.3281ZM86.0449 30H84.6738L96.1875 0.890625H97.5586L109.055 30H107.701L96.873 2.5957L86.0449 30ZM97.0312 5.60156L97.752 7.21875L88.752 30H87.3984L97.0312 5.60156ZM98.4375 8.94141L99.1055 10.6816L91.4941 30H90.123L98.4375 8.94141ZM99.7734 12.4219L100.441 14.1973L94.2012 30H92.8477L99.7734 12.4219ZM117.229 30H115.857L104.361 0.890625H105.715L117.229 30ZM102.99 0.890625L114.504 30H113.15L101.637 0.890625H102.99ZM100.266 0.890625L111.779 30H110.408L98.9121 0.890625H100.266ZM129.605 19.2969H127.824C125.637 19.2969 123.954 18.8542 122.777 17.9688C121.6 17.0729 121.012 15.8438 121.012 14.2812C121.012 12.8229 121.704 11.6094 123.09 10.6406C124.475 9.66146 126.418 9.17188 128.918 9.17188C130.585 9.17188 132.137 9.40104 133.574 9.85938C135.022 10.3177 136.225 10.9635 137.184 11.7969L136.309 12.5C135.454 11.8021 134.382 11.2604 133.09 10.875C131.798 10.4896 130.408 10.2969 128.918 10.2969C126.72 10.2969 125.038 10.6719 123.871 11.4219C122.715 12.1719 122.137 13.125 122.137 14.2812C122.137 15.5312 122.611 16.4948 123.559 17.1719C124.517 17.8385 125.939 18.1719 127.824 18.1719H129.543C131.762 18.1719 133.46 18.6198 134.637 19.5156C135.824 20.401 136.418 21.625 136.418 23.1875C136.418 24.6458 135.725 25.8646 134.34 26.8438C132.954 27.8125 131.012 28.2969 128.512 28.2969C126.845 28.2969 125.288 28.0677 123.84 27.6094C122.402 27.151 121.204 26.5052 120.246 25.6719L121.121 24.9688C121.975 25.6667 123.048 26.2083 124.34 26.5938C125.632 26.9792 127.022 27.1719 128.512 27.1719C130.71 27.1719 132.387 26.7969 133.543 26.0469C134.71 25.2969 135.293 24.3438 135.293 23.1875C135.293 21.9375 134.814 20.9792 133.855 20.3125C132.908 19.6354 131.491 19.2969 129.605 19.2969ZM129.605 21.5469H127.824C124.928 21.5469 122.694 20.8906 121.121 19.5781C119.548 18.2552 118.762 16.4896 118.762 14.2812C118.762 13.2708 118.986 12.3229 119.434 11.4375C119.882 10.5521 120.522 9.77604 121.355 9.10938C122.199 8.43229 123.272 7.90104 124.574 7.51562C125.876 7.11979 127.324 6.92188 128.918 6.92188C130.928 6.92188 132.809 7.22917 134.559 7.84375C136.309 8.44792 137.767 9.29688 138.934 10.3906L138.027 11.0625C136.965 10.1042 135.637 9.36458 134.043 8.84375C132.449 8.3125 130.741 8.04688 128.918 8.04688C126.105 8.04688 123.897 8.64062 122.293 9.82812C120.689 11.0156 119.887 12.5 119.887 14.2812C119.887 16.1667 120.574 17.6615 121.949 18.7656C123.324 19.8698 125.283 20.4219 127.824 20.4219H129.543C132.626 20.4219 134.168 21.3438 134.168 23.1875C134.168 24.0208 133.694 24.7083 132.746 25.25C131.809 25.7812 130.397 26.0469 128.512 26.0469C127.189 26.0469 125.96 25.8958 124.824 25.5938C123.689 25.2812 122.751 24.8385 122.012 24.2656L122.902 23.5781C124.204 24.474 126.074 24.9219 128.512 24.9219C130.074 24.9219 131.22 24.7604 131.949 24.4375C132.678 24.1146 133.043 23.6979 133.043 23.1875C133.043 22.5938 132.788 22.1719 132.277 21.9219C131.767 21.6719 130.876 21.5469 129.605 21.5469ZM129.605 17.0469H127.824C124.783 17.0469 123.262 16.125 123.262 14.2812C123.262 13.4479 123.73 12.7656 124.668 12.2344C125.616 11.6927 127.033 11.4219 128.918 11.4219C130.241 11.4219 131.47 11.5781 132.605 11.8906C133.741 12.1927 134.678 12.6302 135.418 13.2031L134.527 13.8906C133.225 12.9948 131.355 12.5469 128.918 12.5469C127.355 12.5469 126.21 12.7083 125.48 13.0312C124.751 13.3542 124.387 13.7708 124.387 14.2812C124.387 14.875 124.642 15.2969 125.152 15.5469C125.663 15.7969 126.553 15.9219 127.824 15.9219H129.605C132.501 15.9219 134.736 16.5833 136.309 17.9062C137.882 19.2188 138.668 20.9792 138.668 23.1875C138.668 24.1979 138.444 25.1458 137.996 26.0312C137.548 26.9167 136.902 27.6979 136.059 28.375C135.225 29.0417 134.158 29.5729 132.855 29.9688C131.553 30.3542 130.105 30.5469 128.512 30.5469C126.501 30.5469 124.621 30.2448 122.871 29.6406C121.121 29.026 119.663 28.1719 118.496 27.0781L119.402 26.4062C120.465 27.3646 121.793 28.1094 123.387 28.6406C124.98 29.1615 126.689 29.4219 128.512 29.4219C131.324 29.4219 133.533 28.8281 135.137 27.6406C136.741 26.4531 137.543 24.9688 137.543 23.1875C137.543 21.3021 136.855 19.8073 135.48 18.7031C134.105 17.599 132.147 17.0469 129.605 17.0469ZM163.652 7.5H164.777V30H163.652V7.5ZM141.137 7.5H142.262V30H141.137V7.5ZM161.402 7.5H162.527V30H161.402V7.5ZM159.152 7.5H160.277V30H159.152V7.5ZM156.902 7.5H158.027V30H156.902V21H149.012V30H147.887V7.5H149.012V15.375H156.902V7.5ZM145.637 7.5H146.762V30H145.637V7.5ZM143.387 7.5H144.512V30H143.387V7.5ZM156.902 19.875V18.75H149.012V19.875H156.902ZM156.902 17.625V16.5H149.012V17.625H156.902ZM176.324 15.5781C175.449 16.4531 175.012 17.5104 175.012 18.75C175.012 19.9896 175.449 21.0521 176.324 21.9375C177.21 22.8125 178.272 23.25 179.512 23.25C180.751 23.25 181.809 22.8125 182.684 21.9375C183.569 21.0521 184.012 19.9896 184.012 18.75C184.012 17.5104 183.569 16.4531 182.684 15.5781C181.809 14.6927 180.751 14.25 179.512 14.25C178.272 14.25 177.21 14.6927 176.324 15.5781ZM175.527 22.7344C174.434 21.6302 173.887 20.3021 173.887 18.75C173.887 17.1979 174.434 15.875 175.527 14.7812C176.632 13.6771 177.96 13.125 179.512 13.125C181.064 13.125 182.387 13.6771 183.48 14.7812C184.585 15.875 185.137 17.1979 185.137 18.75C185.137 20.3021 184.585 21.6302 183.48 22.7344C182.387 23.8281 181.064 24.375 179.512 24.375C177.96 24.375 176.632 23.8281 175.527 22.7344ZM174.73 13.9844C173.418 15.3073 172.762 16.8958 172.762 18.75C172.762 20.6042 173.418 22.1927 174.73 23.5156C176.053 24.8385 177.647 25.5 179.512 25.5C181.376 25.5 182.965 24.8385 184.277 23.5156C185.6 22.1927 186.262 20.6042 186.262 18.75C186.262 16.8958 185.6 15.3073 184.277 13.9844C182.965 12.6615 181.376 12 179.512 12C177.647 12 176.053 12.6615 174.73 13.9844ZM172.684 22.7031C171.986 21.4948 171.637 20.1771 171.637 18.75C171.637 17.3229 171.986 16.0052 172.684 14.7969C173.392 13.5885 174.35 12.6354 175.559 11.9375C176.767 11.2292 178.085 10.875 179.512 10.875C180.939 10.875 182.257 11.2292 183.465 11.9375C184.673 12.6354 185.626 13.5885 186.324 14.7969C187.033 16.0052 187.387 17.3229 187.387 18.75C187.387 20.1771 187.033 21.4948 186.324 22.7031C185.626 23.9115 184.673 24.8698 183.465 25.5781C182.257 26.276 180.939 26.625 179.512 26.625C178.085 26.625 176.767 26.276 175.559 25.5781C174.35 24.8698 173.392 23.9115 172.684 22.7031ZM171.215 15.2656C170.746 16.3698 170.512 17.5312 170.512 18.75C170.512 19.9688 170.746 21.1354 171.215 22.25C171.694 23.3542 172.335 24.3125 173.137 25.125C173.949 25.9271 174.908 26.5677 176.012 27.0469C177.126 27.5156 178.293 27.75 179.512 27.75C180.73 27.75 181.892 27.5156 182.996 27.0469C184.111 26.5677 185.069 25.9271 185.871 25.125C186.684 24.3125 187.324 23.3542 187.793 22.25C188.272 21.1354 188.512 19.9688 188.512 18.75C188.512 17.5312 188.272 16.3698 187.793 15.2656C187.324 14.151 186.684 13.1927 185.871 12.3906C185.069 11.5781 184.111 10.9375 182.996 10.4688C181.892 9.98958 180.73 9.75 179.512 9.75C178.293 9.75 177.126 9.98958 176.012 10.4688C174.908 10.9375 173.949 11.5781 173.137 12.3906C172.335 13.1927 171.694 14.151 171.215 15.2656ZM170.184 22.6875C169.652 21.4375 169.387 20.125 169.387 18.75C169.387 17.375 169.652 16.0625 170.184 14.8125C170.725 13.5625 171.444 12.4896 172.34 11.5938C173.246 10.6875 174.324 9.96875 175.574 9.4375C176.824 8.89583 178.137 8.625 179.512 8.625C180.887 8.625 182.199 8.89583 183.449 9.4375C184.699 9.96875 185.772 10.6875 186.668 11.5938C187.574 12.4896 188.293 13.5625 188.824 14.8125C189.366 16.0625 189.637 17.375 189.637 18.75C189.637 20.125 189.366 21.4375 188.824 22.6875C188.293 23.9375 187.574 25.0156 186.668 25.9219C185.772 26.8177 184.699 27.5365 183.449 28.0781C182.199 28.6094 180.887 28.875 179.512 28.875C178.137 28.875 176.824 28.6094 175.574 28.0781C174.324 27.5365 173.246 26.8177 172.34 25.9219C171.444 25.0156 170.725 23.9375 170.184 22.6875ZM169.152 14.3906C168.559 15.776 168.262 17.2292 168.262 18.75C168.262 20.2708 168.559 21.7292 169.152 23.125C169.746 24.5104 170.543 25.7083 171.543 26.7188C172.553 27.7188 173.751 28.5156 175.137 29.1094C176.533 29.7031 177.991 30 179.512 30C181.033 30 182.486 29.7031 183.871 29.1094C185.267 28.5156 186.465 27.7188 187.465 26.7188C188.475 25.7083 189.277 24.5104 189.871 23.125C190.465 21.7292 190.762 20.2708 190.762 18.75C190.762 17.2292 190.465 15.776 189.871 14.3906C189.277 12.9948 188.475 11.7969 187.465 10.7969C186.465 9.78646 185.267 8.98438 183.871 8.39062C182.486 7.79688 181.033 7.5 179.512 7.5C177.991 7.5 176.533 7.79688 175.137 8.39062C173.751 8.98438 172.553 9.78646 171.543 10.7969C170.543 11.7969 169.746 12.9948 169.152 14.3906ZM168.121 23.5625C167.465 22.0312 167.137 20.4271 167.137 18.75C167.137 17.0729 167.465 15.474 168.121 13.9531C168.777 12.4219 169.658 11.1042 170.762 10C171.866 8.89583 173.178 8.01562 174.699 7.35938C176.23 6.70312 177.835 6.375 179.512 6.375C181.189 6.375 182.788 6.70312 184.309 7.35938C185.84 8.01562 187.158 8.89583 188.262 10C189.366 11.1042 190.246 12.4219 190.902 13.9531C191.559 15.474 191.887 17.0729 191.887 18.75C191.887 20.4271 191.559 22.0312 190.902 23.5625C190.246 25.0833 189.366 26.3958 188.262 27.5C187.158 28.6042 185.84 29.4844 184.309 30.1406C182.788 30.7969 181.189 31.125 179.512 31.125C177.835 31.125 176.23 30.7969 174.699 30.1406C173.178 29.4844 171.866 28.6042 170.762 27.5C169.658 26.3958 168.777 25.0833 168.121 23.5625ZM216.605 22.7656C216.824 22.776 217.09 22.7812 217.402 22.7812C217.715 22.7812 217.975 22.776 218.184 22.7656C218.402 22.7448 218.626 22.7031 218.855 22.6406C219.085 22.5677 219.267 22.474 219.402 22.3594C219.538 22.2448 219.647 22.0833 219.73 21.875C219.824 21.6562 219.871 21.3958 219.871 21.0938V7.5H220.996V21.0938C220.996 22.9688 219.798 23.9062 217.402 23.9062C216.194 23.9062 215.298 23.6771 214.715 23.2188C214.632 23.625 214.533 23.9844 214.418 24.2969C215.21 24.7865 216.204 25.0312 217.402 25.0312C218.798 25.0312 219.934 24.7083 220.809 24.0625C221.684 23.4062 222.121 22.4167 222.121 21.0938V7.5H223.246V21.0938C223.246 22.7292 222.694 23.9844 221.59 24.8594C220.496 25.724 219.1 26.1562 217.402 26.1562C216.079 26.1562 214.944 25.8854 213.996 25.3438C213.84 25.6771 213.658 25.9948 213.449 26.2969C214.585 26.9531 215.902 27.2812 217.402 27.2812C218.371 27.2812 219.272 27.1458 220.105 26.875C220.949 26.6042 221.689 26.2135 222.324 25.7031C222.96 25.1927 223.46 24.5417 223.824 23.75C224.189 22.9583 224.371 22.0729 224.371 21.0938V7.5H225.496V21.0938C225.496 22.5938 225.126 23.9062 224.387 25.0312C223.658 26.1562 222.684 27 221.465 27.5625C220.257 28.125 218.902 28.4062 217.402 28.4062C215.652 28.4062 214.111 28.0052 212.777 27.2031C212.486 27.5365 212.22 27.8073 211.98 28.0156C213.533 29.026 215.34 29.5312 217.402 29.5312C219.1 29.5312 220.642 29.1979 222.027 28.5312C223.413 27.8646 224.522 26.8854 225.355 25.5938C226.199 24.2917 226.621 22.7917 226.621 21.0938V7.5H227.746V21.0938C227.746 22.5312 227.47 23.8542 226.918 25.0625C226.376 26.2708 225.637 27.2812 224.699 28.0938C223.772 28.9062 222.678 29.5365 221.418 29.9844C220.158 30.4323 218.819 30.6562 217.402 30.6562C214.923 30.6562 212.803 30.0208 211.043 28.75C209.22 30.0208 207.069 30.6562 204.59 30.6562C203.173 30.6562 201.835 30.4323 200.574 29.9844C199.314 29.5365 198.215 28.9062 197.277 28.0938C196.35 27.2812 195.611 26.2708 195.059 25.0625C194.517 23.8542 194.246 22.5312 194.246 21.0938V7.5H195.371V21.0938C195.371 22.375 195.611 23.5521 196.09 24.625C196.579 25.6979 197.241 26.5885 198.074 27.2969C198.908 28.0052 199.882 28.5573 200.996 28.9531C202.121 29.3385 203.319 29.5312 204.59 29.5312C206.246 29.5312 207.783 29.1562 209.199 28.4062C210.616 27.6458 211.736 26.6198 212.559 25.3281C213.392 24.026 213.809 22.6146 213.809 21.0938V7.5H214.934V21.0938C214.934 21.3958 214.975 21.6562 215.059 21.875C215.152 22.0833 215.267 22.2448 215.402 22.3594C215.538 22.474 215.72 22.5677 215.949 22.6406C216.178 22.7031 216.397 22.7448 216.605 22.7656ZM208.184 7.5V21.0938C208.184 22.9688 206.986 23.9062 204.59 23.9062C202.194 23.9062 200.996 22.9688 200.996 21.0938V7.5H202.121V21.0938C202.121 21.3958 202.163 21.6562 202.246 21.875C202.34 22.0833 202.454 22.2448 202.59 22.3594C202.725 22.474 202.908 22.5677 203.137 22.6406C203.366 22.7031 203.585 22.7448 203.793 22.7656C204.012 22.776 204.277 22.7812 204.59 22.7812C204.902 22.7812 205.163 22.776 205.371 22.7656C205.59 22.7448 205.814 22.7031 206.043 22.6406C206.272 22.5677 206.454 22.474 206.59 22.3594C206.725 22.2448 206.835 22.0833 206.918 21.875C207.012 21.6562 207.059 21.3958 207.059 21.0938V7.5H208.184ZM210.434 7.5V21.0938C210.434 22.7292 209.882 23.9844 208.777 24.8594C207.684 25.724 206.288 26.1562 204.59 26.1562C202.892 26.1562 201.491 25.724 200.387 24.8594C199.293 23.9844 198.746 22.7292 198.746 21.0938V7.5H199.871V21.0938C199.871 22.4167 200.309 23.4062 201.184 24.0625C202.059 24.7083 203.194 25.0312 204.59 25.0312C205.986 25.0312 207.121 24.7083 207.996 24.0625C208.871 23.4062 209.309 22.4167 209.309 21.0938V7.5H210.434ZM212.684 7.5V21.0938C212.684 22.5938 212.314 23.9062 211.574 25.0312C210.845 26.1562 209.871 27 208.652 27.5625C207.444 28.125 206.09 28.4062 204.59 28.4062C203.09 28.4062 201.73 28.125 200.512 27.5625C199.303 27 198.329 26.1562 197.59 25.0312C196.861 23.9062 196.496 22.5938 196.496 21.0938V7.5H197.621V21.0938C197.621 22.0729 197.803 22.9583 198.168 23.75C198.533 24.5417 199.033 25.1927 199.668 25.7031C200.303 26.2135 201.038 26.6042 201.871 26.875C202.715 27.1458 203.621 27.2812 204.59 27.2812C205.559 27.2812 206.46 27.1458 207.293 26.875C208.137 26.6042 208.876 26.2135 209.512 25.7031C210.147 25.1927 210.647 24.5417 211.012 23.75C211.376 22.9583 211.559 22.0729 211.559 21.0938V7.5H212.684Z" fill="white" fill-opacity="0.5"/>
</svg>
